<?xml version="1.0" standalone="no"?><!DOCTYPE svg PUBLIC "-//W3C//DTD SVG 1.1//EN" "http://www.w3.org/Graphics/SVG/1.1/DTD/svg11.dtd"><svg t="1700626704464" class="icon" viewBox="0 0 1024 1024" version="1.1" xmlns="http://www.w3.org/2000/svg" p-id="88991" width="32" height="32" xmlns:xlink="http://www.w3.org/1999/xlink"><path d="M555.277614 429.205171v0.122831H236.483745v-0.122831H137.099925v0.122831H63.899552c-35.286579 0-63.899347 28.619592-63.899347 63.940291v466.723177c0 35.388938 28.605944 64.001706 63.899347 64.001706h663.955431c35.313874 0 63.831108-28.612768 63.831107-64.001706V493.261469c-0.013648-35.320698-28.578649-63.940291-63.899347-63.940291H654.531779v-0.122831l-99.254165 0.006824z m-123.513262 309.57473v101.935973c0 4.544742-3.766813 8.386619-8.386618 8.386618h-54.92587a8.461682 8.461682 0 0 1-8.44121-8.386618v-101.935973c-25.80813-13.211142-43.686845-39.67437-43.686845-70.68234 0-43.912035 35.627776-79.621698 79.505691-79.621698 43.946155 0 79.567106 35.709663 79.567106 79.621698 0.061415 31.00797-17.824124 57.484846-43.632254 70.68234z" fill="#262536" p-id="88992"></path><path d="M605.938523 263.083247c0-87.933253 71.562628-159.536825 159.448114-159.536826 87.905958 0 159.332107 71.603572 159.332107 159.536826v166.121924h99.267813V258.85923c0-142.756764-115.959163-258.85923-258.640864-258.85923S506.547879 116.102466 506.547879 258.85923v170.345941H605.931699V263.083247h0.006824z" fill="#262536" p-id="88993"></path></svg>