<?xml version="1.0" standalone="no"?><!DOCTYPE svg PUBLIC "-//W3C//DTD SVG 1.1//EN" "http://www.w3.org/Graphics/SVG/1.1/DTD/svg11.dtd"><svg t="1700626225362" class="icon" viewBox="0 0 1024 1024" version="1.1" xmlns="http://www.w3.org/2000/svg" p-id="61121" width="32" height="32" xmlns:xlink="http://www.w3.org/1999/xlink"><path d="M628.38 689.45c-9.39 0-18.7-4.11-25.02-12.03l-112.98-141.4c-6.52-7.77-10.38-18.36-10.38-29.28V337.45c0-17.67 14.33-32 32-32s32 14.33 32 32v163.17l109.36 136.86c11.03 13.8 8.78 33.94-5.03 44.97-5.89 4.72-12.94 7-19.95 7z m-88.49-193.97l0.52 0.64c-0.16-0.21-0.33-0.42-0.52-0.64z" fill="#2c2c2c" p-id="61122"></path><path d="M512 160c-194.09 0-352 157.91-352 352 0 94.32 37.49 179.9 98.1 243.16l-60.73 91.09c-9.8 14.7-5.83 34.58 8.88 44.38a31.812 31.812 0 0 0 17.72 5.38c10.34 0 20.48-5 26.66-14.25l56.21-84.31C364.67 839.14 435.41 864 512 864s147.33-24.86 205.17-66.56l56.21 84.31C779.55 891 789.69 896 800.03 896c6.09 0 12.27-1.73 17.72-5.38 14.7-9.8 18.67-29.67 8.88-44.38l-60.73-91.09C826.51 691.9 864 606.32 864 512c0-194.09-157.91-352-352-352zM224 512c0-158.8 129.2-288 288-288s288 129.2 288 288-129.2 288-288 288-288-129.2-288-288z" fill="#2c2c2c" p-id="61123"></path><path d="M899.69 288.12c-39.3-67.89-95.94-124.53-163.81-163.81-15.31-8.86-34.88-3.61-43.73 11.67-8.84 15.3-3.62 34.88 11.67 43.73 58.22 33.67 106.8 82.25 140.5 140.47 5.92 10.25 16.67 15.97 27.72 15.97 5.44 0 10.95-1.39 16-4.31 15.29-8.84 20.51-28.42 11.65-43.72zM179.72 320.19c33.67-58.22 82.25-106.8 140.47-140.47 15.3-8.86 20.52-28.44 11.67-43.73-8.86-15.28-28.42-20.48-43.73-11.67-67.88 39.28-124.53 95.94-163.81 163.81-8.84 15.3-3.62 34.88 11.67 43.73a31.86 31.86 0 0 0 16 4.3c11.04 0 21.79-5.72 27.73-15.97z" fill="#2c2c2c" p-id="61124"></path></svg>