<?xml version="1.0" standalone="no"?><!DOCTYPE svg PUBLIC "-//W3C//DTD SVG 1.1//EN" "http://www.w3.org/Graphics/SVG/1.1/DTD/svg11.dtd"><svg t="1699843362277" class="icon" viewBox="0 0 1024 1024" version="1.1" xmlns="http://www.w3.org/2000/svg" p-id="35486" xmlns:xlink="http://www.w3.org/1999/xlink" width="32" height="32"><path d="M65 512C65 264.576 265.576 64 513 64s448 200.576 448 448-200.576 448-448 448S65 759.424 65 512z m229.195-81.125c-12.398 12.498-12.238 32.603 0.357 44.905l185.935 181.61c18.724 18.288 48.647 18.205 67.269-0.187l183.818-181.547 0.372-0.374c12.154-12.399 12.077-32.227-0.266-44.532l-0.376-0.37c-12.495-12.06-32.478-11.983-44.878 0.265l-166.873 164.81a8 8 0 0 1-11.211 0.031L339.448 430.521l-0.38-0.366c-12.62-11.932-32.6-11.653-44.873 0.72z" fill="#707070" p-id="35487"></path></svg>